<svg width="120" height="120" viewBox="0 0 120 120" fill="none" xmlns="http://www.w3.org/2000/svg">
<g clip-path="url(#clip0_1_2)">
<rect width="120" height="120" fill="#F6F6E9"/>
<g filter="url(#filter0_d_1_2)">
<mask id="path-1-inside-1_1_2" fill="white">
<path d="M11 8H15V112H11V8Z"/>
</mask>
<path d="M11 8H15V112H11V8Z" fill="black"/>
<path d="M11 8V4H7V8H11ZM15 8H19V4H15V8ZM15 112V116H19V112H15ZM11 112H7V116H11V112ZM11 12H15V4H11V12ZM11 8V112H19V8H11ZM15 108H11V116H15V108ZM15 112V8H7V112H15Z" fill="black" mask="url(#path-1-inside-1_1_2)"/>
</g>
<g filter="url(#filter1_d_1_2)">
<mask id="path-3-inside-2_1_2" fill="white">
<path d="M11.2766 9.3125L14.8803 7.94708L46.4087 93.9588L44.9812 98.3425L11.2766 9.3125Z"/>
</mask>
<path d="M11.2766 9.3125L14.8803 7.94708L46.4087 93.9588L44.9812 98.3425L11.2766 9.3125Z" fill="black"/>
<path d="M11.2766 9.3125L9.90595 5.55467L6.11972 6.98924L7.55303 10.7753L11.2766 9.3125ZM14.8803 7.94708L18.6186 6.52383L17.2442 2.77426L13.5097 4.18925L14.8803 7.94708ZM46.4087 93.9588L50.1925 95.1791L50.627 93.845L50.147 92.5356L46.4087 93.9588ZM44.9812 98.3425L41.2576 99.8053L45.2509 110.354L48.765 99.5628L44.9812 98.3425ZM12.6473 13.0703L16.251 11.7049L13.5097 4.18925L9.90595 5.55467L12.6473 13.0703ZM11.142 9.37033L42.6704 95.3821L50.147 92.5356L18.6186 6.52383L11.142 9.37033ZM42.6249 92.7386L41.1973 97.1223L48.765 99.5628L50.1925 95.1791L42.6249 92.7386ZM48.7047 96.8797L15.0002 7.84971L7.55303 10.7753L41.2576 99.8053L48.7047 96.8797Z" fill="black" mask="url(#path-3-inside-2_1_2)"/>
</g>
<g filter="url(#filter2_d_1_2)">
<rect x="74" y="8" width="4" height="104" fill="black"/>
<rect x="75" y="9" width="2" height="102" stroke="black" stroke-width="2"/>
</g>
<g filter="url(#filter3_d_1_2)">
<mask id="path-7-inside-3_1_2" fill="white">
<path d="M73.5037 7.95288L77.2489 9.35753L45.6554 96.7404L43.2706 92.7515L73.5037 7.95288Z"/>
</mask>
<path d="M73.5037 7.95288L77.2489 9.35753L45.6554 96.7404L43.2706 92.7515L73.5037 7.95288Z" fill="black"/>
<path d="M73.5037 7.95288L74.8637 4.1912L71.1017 2.78028L69.7524 6.56499L73.5037 7.95288ZM77.2489 9.35753L80.9942 10.7622L82.3542 7.0005L78.609 5.59585L77.2489 9.35753ZM45.6554 96.7404L42.2474 98.7897L46.5598 106.003L49.4007 98.1451L45.6554 96.7404ZM43.2706 92.7515L39.5193 91.3636L38.8799 93.1572L39.8626 94.8008L43.2706 92.7515ZM72.1436 11.7146L75.8889 13.1192L78.609 5.59585L74.8637 4.1912L72.1436 11.7146ZM73.5037 7.95288L41.9102 95.3358L49.4007 98.1451L80.9942 10.7622L73.5037 7.95288ZM49.0635 94.6911L46.6786 90.7022L39.8626 94.8008L42.2474 98.7897L49.0635 94.6911ZM47.0219 94.1394L77.2549 9.34077L69.7524 6.56499L39.5193 91.3636L47.0219 94.1394Z" fill="black" mask="url(#path-7-inside-3_1_2)"/>
</g>
<g filter="url(#filter4_d_1_2)">
<mask id="path-9-inside-4_1_2" fill="white">
<path d="M79.8615 58.0276C89.0704 58.0067 97.8947 55.3555 104.393 50.6571C110.892 45.9588 114.532 39.5981 114.514 32.9745C114.495 26.3508 110.819 20.0068 104.295 15.3379C97.7698 10.669 88.9308 8.05773 79.722 8.07857L79.7917 33.0531L79.8615 58.0276Z"/>
</mask>
<path d="M79.8615 58.0276C89.0704 58.0067 97.8947 55.3555 104.393 50.6571C110.892 45.9588 114.532 39.5981 114.514 32.9745C114.495 26.3508 110.819 20.0068 104.295 15.3379C97.7698 10.669 88.9308 8.05773 79.722 8.07857L79.7917 33.0531L79.8615 58.0276Z" stroke="black" stroke-width="8" mask="url(#path-9-inside-4_1_2)"/>
</g>
<g filter="url(#filter5_d_1_2)">
<mask id="path-10-inside-5_1_2" fill="white">
<path d="M79.8615 112.029C89.0704 112.008 97.8947 109.356 104.393 104.658C110.892 99.9596 114.532 93.5988 114.514 86.975C114.495 80.3512 110.819 74.007 104.295 69.338C97.7698 64.669 88.9308 62.0577 79.722 62.0786L79.7917 87.0536L79.8615 112.029Z"/>
</mask>
<path d="M79.8615 112.029C89.0704 112.008 97.8947 109.356 104.393 104.658C110.892 99.9596 114.532 93.5988 114.514 86.975C114.495 80.3512 110.819 74.007 104.295 69.338C97.7698 64.669 88.9308 62.0577 79.722 62.0786L79.7917 87.0536L79.8615 112.029Z" stroke="black" stroke-width="8" mask="url(#path-10-inside-5_1_2)"/>
</g>
</g>
<defs>
<filter id="filter0_d_1_2" x="11" y="8" width="12" height="112" filterUnits="userSpaceOnUse" color-interpolation-filters="sRGB">
<feFlood flood-opacity="0" result="BackgroundImageFix"/>
<feColorMatrix in="SourceAlpha" type="matrix" values="0 0 0 0 0 0 0 0 0 0 0 0 0 0 0 0 0 0 127 0" result="hardAlpha"/>
<feOffset dx="4" dy="4"/>
<feGaussianBlur stdDeviation="2"/>
<feComposite in2="hardAlpha" operator="out"/>
<feColorMatrix type="matrix" values="0 0 0 0 0 0 0 0 0 0 0 0 0 0 0 0 0 0 0.25 0"/>
<feBlend mode="normal" in2="BackgroundImageFix" result="effect1_dropShadow_1_2"/>
<feBlend mode="normal" in="SourceGraphic" in2="effect1_dropShadow_1_2" result="shape"/>
</filter>
<filter id="filter1_d_1_2" x="11.2766" y="7.94702" width="43.1321" height="98.3955" filterUnits="userSpaceOnUse" color-interpolation-filters="sRGB">
<feFlood flood-opacity="0" result="BackgroundImageFix"/>
<feColorMatrix in="SourceAlpha" type="matrix" values="0 0 0 0 0 0 0 0 0 0 0 0 0 0 0 0 0 0 127 0" result="hardAlpha"/>
<feOffset dx="4" dy="4"/>
<feGaussianBlur stdDeviation="2"/>
<feComposite in2="hardAlpha" operator="out"/>
<feColorMatrix type="matrix" values="0 0 0 0 0 0 0 0 0 0 0 0 0 0 0 0 0 0 0.25 0"/>
<feBlend mode="normal" in2="BackgroundImageFix" result="effect1_dropShadow_1_2"/>
<feBlend mode="normal" in="SourceGraphic" in2="effect1_dropShadow_1_2" result="shape"/>
</filter>
<filter id="filter2_d_1_2" x="72" y="6" width="16" height="116" filterUnits="userSpaceOnUse" color-interpolation-filters="sRGB">
<feFlood flood-opacity="0" result="BackgroundImageFix"/>
<feColorMatrix in="SourceAlpha" type="matrix" values="0 0 0 0 0 0 0 0 0 0 0 0 0 0 0 0 0 0 127 0" result="hardAlpha"/>
<feMorphology radius="2" operator="dilate" in="SourceAlpha" result="effect1_dropShadow_1_2"/>
<feOffset dx="4" dy="4"/>
<feGaussianBlur stdDeviation="2"/>
<feComposite in2="hardAlpha" operator="out"/>
<feColorMatrix type="matrix" values="0 0 0 0 0 0 0 0 0 0 0 0 0 0 0 0 0 0 0.25 0"/>
<feBlend mode="normal" in2="BackgroundImageFix" result="effect1_dropShadow_1_2"/>
<feBlend mode="normal" in="SourceGraphic" in2="effect1_dropShadow_1_2" result="shape"/>
</filter>
<filter id="filter3_d_1_2" x="43.2706" y="7.95288" width="41.9783" height="96.7876" filterUnits="userSpaceOnUse" color-interpolation-filters="sRGB">
<feFlood flood-opacity="0" result="BackgroundImageFix"/>
<feColorMatrix in="SourceAlpha" type="matrix" values="0 0 0 0 0 0 0 0 0 0 0 0 0 0 0 0 0 0 127 0" result="hardAlpha"/>
<feOffset dx="4" dy="4"/>
<feGaussianBlur stdDeviation="2"/>
<feComposite in2="hardAlpha" operator="out"/>
<feColorMatrix type="matrix" values="0 0 0 0 0 0 0 0 0 0 0 0 0 0 0 0 0 0 0.25 0"/>
<feBlend mode="normal" in2="BackgroundImageFix" result="effect1_dropShadow_1_2"/>
<feBlend mode="normal" in="SourceGraphic" in2="effect1_dropShadow_1_2" result="shape"/>
</filter>
<filter id="filter4_d_1_2" x="73.7219" y="6.07849" width="46.7919" height="61.9491" filterUnits="userSpaceOnUse" color-interpolation-filters="sRGB">
<feFlood flood-opacity="0" result="BackgroundImageFix"/>
<feColorMatrix in="SourceAlpha" type="matrix" values="0 0 0 0 0 0 0 0 0 0 0 0 0 0 0 0 0 0 127 0" result="hardAlpha"/>
<feMorphology radius="2" operator="dilate" in="SourceAlpha" result="effect1_dropShadow_1_2"/>
<feOffset dy="4"/>
<feGaussianBlur stdDeviation="2"/>
<feColorMatrix type="matrix" values="0 0 0 0 0 0 0 0 0 0 0 0 0 0 0 0 0 0 0.25 0"/>
<feBlend mode="normal" in2="BackgroundImageFix" result="effect1_dropShadow_1_2"/>
<feBlend mode="normal" in="SourceGraphic" in2="effect1_dropShadow_1_2" result="shape"/>
</filter>
<filter id="filter5_d_1_2" x="73.7219" y="60.0785" width="46.7919" height="61.9501" filterUnits="userSpaceOnUse" color-interpolation-filters="sRGB">
<feFlood flood-opacity="0" result="BackgroundImageFix"/>
<feColorMatrix in="SourceAlpha" type="matrix" values="0 0 0 0 0 0 0 0 0 0 0 0 0 0 0 0 0 0 127 0" result="hardAlpha"/>
<feMorphology radius="2" operator="dilate" in="SourceAlpha" result="effect1_dropShadow_1_2"/>
<feOffset dy="4"/>
<feGaussianBlur stdDeviation="2"/>
<feColorMatrix type="matrix" values="0 0 0 0 0 0 0 0 0 0 0 0 0 0 0 0 0 0 0.25 0"/>
<feBlend mode="normal" in2="BackgroundImageFix" result="effect1_dropShadow_1_2"/>
<feBlend mode="normal" in="SourceGraphic" in2="effect1_dropShadow_1_2" result="shape"/>
</filter>
<clipPath id="clip0_1_2">
<rect width="120" height="120" fill="white"/>
</clipPath>
</defs>
</svg>
