<svg width="113" height="70" viewBox="0 0 113 70" fill="none" xmlns="http://www.w3.org/2000/svg">
<g filter="url(#filter0_d_1_5)">
<path d="M0.436088 0.909089H9.26563L30.027 51.6193H30.7429L51.5043 0.909089H60.3338V62H53.4134V15.5852H52.8168L33.7259 62H27.044L7.95313 15.5852H7.35654V62H0.436088V0.909089ZM61.7266 62V0.909089H83.0845C87.3402 0.909089 90.8501 1.64489 93.6143 3.11648C96.3785 4.56818 98.4368 6.52699 99.7891 8.9929C101.141 11.4389 101.817 14.1534 101.817 17.1364C101.817 19.7614 101.35 21.929 100.415 23.6392C99.5007 25.3494 98.2876 26.7017 96.7763 27.696C95.2848 28.6903 93.6641 29.4261 91.9141 29.9034V30.5C93.7834 30.6193 95.6626 31.2756 97.5518 32.4688C99.441 33.6619 101.022 35.3722 102.295 37.5994C103.567 39.8267 104.204 42.5511 104.204 45.7727C104.204 48.8352 103.508 51.5895 102.116 54.0355C100.724 56.4815 98.5263 58.4205 95.5234 59.8523C92.5206 61.2841 88.6129 62 83.8004 62H61.7266ZM69.1243 55.4375H83.8004C88.6328 55.4375 92.0632 54.5028 94.0916 52.6335C96.1399 50.7443 97.1641 48.4574 97.1641 45.7727C97.1641 43.7045 96.6371 41.7955 95.5831 40.0455C94.5291 38.2756 93.0277 36.8636 91.0788 35.8097C89.13 34.7358 86.8232 34.1989 84.1584 34.1989H69.1243V55.4375ZM69.1243 27.7557H82.8459C85.0732 27.7557 87.0817 27.3182 88.8714 26.4432C90.6811 25.5682 92.1129 24.3352 93.1669 22.7443C94.2408 21.1534 94.7777 19.2841 94.7777 17.1364C94.7777 14.4517 93.843 12.1747 91.9737 10.3054C90.1044 8.41619 87.1413 7.47159 83.0845 7.47159H69.1243V27.7557Z" fill="#040000"/>
</g>
<defs>
<filter id="filter0_d_1_5" x="0.436096" y="0.909088" width="111.768" height="69.0909" filterUnits="userSpaceOnUse" color-interpolation-filters="sRGB">
<feFlood flood-opacity="0" result="BackgroundImageFix"/>
<feColorMatrix in="SourceAlpha" type="matrix" values="0 0 0 0 0 0 0 0 0 0 0 0 0 0 0 0 0 0 127 0" result="hardAlpha"/>
<feOffset dx="4" dy="4"/>
<feGaussianBlur stdDeviation="2"/>
<feComposite in2="hardAlpha" operator="out"/>
<feColorMatrix type="matrix" values="0 0 0 0 0 0 0 0 0 0 0 0 0 0 0 0 0 0 0.25 0"/>
<feBlend mode="normal" in2="BackgroundImageFix" result="effect1_dropShadow_1_5"/>
<feBlend mode="normal" in="SourceGraphic" in2="effect1_dropShadow_1_5" result="shape"/>
</filter>
</defs>
</svg>
